<?xml version="1.0" encoding="UTF-8"?>
<svg xmlns="http://www.w3.org/2000/svg" xmlns:xlink="http://www.w3.org/1999/xlink" width="1024pt" height="1024pt" viewBox="0 0 1024 1024" version="1.1">
<g id="surface1">
<path style=" stroke:none;fill-rule:nonzero;fill:rgb(99.607843%,75.686275%,2.745098%);fill-opacity:1;" d="M 85.332031 128 L 938.667969 128 L 938.667969 213.332031 L 85.332031 213.332031 Z "/>
<path style=" stroke:none;fill-rule:nonzero;fill:rgb(99.607843%,75.686275%,2.745098%);fill-opacity:1;" d="M 170.667969 256 L 170.667969 960 C 170.667969 994.132813 200.535156 1024 234.667969 1024 L 793.601563 1024 C 827.734375 1024 857.601563 994.132813 857.601563 960 L 857.601563 256 Z M 469.332031 938.667969 L 426.667969 938.667969 L 426.667969 384 L 469.332031 384 Z M 597.332031 938.667969 L 554.667969 938.667969 L 554.667969 384 L 597.332031 384 Z M 725.332031 938.667969 L 682.667969 938.667969 L 682.667969 384 L 725.332031 384 Z M 341.332031 938.667969 L 298.667969 938.667969 L 298.667969 384 L 341.332031 384 Z "/>
<path style="fill:none;stroke-width:2.0803;stroke-linecap:butt;stroke-linejoin:miter;stroke:rgb(99.607843%,75.686275%,2.745098%);stroke-opacity:1;stroke-miterlimit:10;" d="M 16.000031 4.000031 L 7.999969 4.000031 L 7.999969 3.300018 C 7.999969 1.999969 9 1.000031 10.299957 1.000031 L 13.800018 1.000031 C 15 1.000031 16.000031 1.999969 16.000031 3.300018 Z " transform="matrix(42.666667,0,0,42.666667,0,0)"/>
</g>
</svg>
